<svg preserveAspectRatio="none" width="100%" height="100%" overflow="visible" style="display: block;" viewBox="0 0 20.7634 26" fill="none" xmlns="http://www.w3.org/2000/svg">
<path id="&#244;&#128;&#138;&#179;" d="M1.46479 12.7803V10.3023C1.46479 10.0501 1.5543 9.83443 1.73333 9.6554C1.91236 9.47637 2.12801 9.38685 2.38028 9.38685C2.64069 9.38685 2.86041 9.47637 3.03944 9.6554C3.21847 9.83443 3.30798 10.0501 3.30798 10.3023V12.707C3.30798 14.0905 3.5928 15.303 4.16244 16.3446C4.73208 17.3862 5.53365 18.1959 6.56714 18.7737C7.60063 19.3433 8.81315 19.6282 10.2047 19.6282C10.8232 19.6282 11.405 19.5671 11.9502 19.4451C12.5036 19.323 13.0163 19.148 13.4883 18.9202L14.7944 20.2385C14.2654 20.5396 13.6917 20.7837 13.0732 20.9709C12.4629 21.1499 11.8119 21.2638 11.1202 21.3127V24.1568H15.6488C15.9092 24.1568 16.129 24.2463 16.308 24.4254C16.487 24.6044 16.5765 24.8241 16.5765 25.0845C16.5765 25.3368 16.487 25.5524 16.308 25.7315C16.129 25.9105 15.9092 26 15.6488 26H4.74836C4.48795 26 4.26823 25.9105 4.0892 25.7315C3.91017 25.5524 3.82066 25.3368 3.82066 25.0845C3.82066 24.8241 3.91017 24.6044 4.0892 24.4254C4.26823 24.2463 4.48795 24.1568 4.74836 24.1568H9.277V21.3127C7.72269 21.1825 6.35962 20.7471 5.18779 20.0066C4.01596 19.2579 3.10047 18.2651 2.44131 17.0282C1.7903 15.7912 1.46479 14.3753 1.46479 12.7803ZM16.662 15.2948C16.9468 14.4973 17.0892 13.6347 17.0892 12.707V10.3023C17.0892 10.0501 17.1787 9.83443 17.3577 9.6554C17.5368 9.47637 17.7565 9.38685 18.0169 9.38685C18.2692 9.38685 18.4848 9.47637 18.6638 9.6554C18.8429 9.83443 18.9324 10.0501 18.9324 10.3023V12.7803C18.9324 14.2288 18.6516 15.543 18.0901 16.723L16.662 15.2948ZM10.2047 17.0038C9.39092 17.0038 8.67887 16.8166 8.06854 16.4423C7.45822 16.0679 6.98216 15.5512 6.64038 14.892C6.29859 14.2247 6.1277 13.4557 6.1277 12.585V11.5596L11.3765 16.8085C11.0266 16.9387 10.636 17.0038 10.2047 17.0038ZM10.2047 0C9.39906 0 8.69515 0.183099 8.09296 0.549296C7.49077 0.907355 7.01471 1.40782 6.66479 2.0507C6.323 2.69358 6.14397 3.43818 6.1277 4.28451V4.77277L14.2329 12.8779C14.2491 12.8372 14.2573 12.7925 14.2573 12.7437C14.2654 12.6867 14.2695 12.6338 14.2695 12.585V4.41878C14.2695 3.54804 14.0986 2.7831 13.7568 2.12394C13.4232 1.45665 12.9471 0.935837 12.3286 0.561502C11.7183 0.187167 11.0103 0 10.2047 0ZM19.1643 22.5211L0.268545 3.64977C0.0895149 3.47887 0 3.25915 0 2.99061C0 2.72207 0.0895149 2.49828 0.268545 2.31925C0.455712 2.14022 0.679499 2.0507 0.939906 2.0507C1.20031 2.0507 1.4241 2.14022 1.61127 2.31925L20.4948 21.1906C20.6739 21.3696 20.7634 21.5894 20.7634 21.8498C20.7634 22.1102 20.6739 22.334 20.4948 22.5211C20.3158 22.7002 20.092 22.7897 19.8235 22.7897C19.5631 22.7897 19.3433 22.7002 19.1643 22.5211Z" fill="#046FE4"/>
</svg>
