<svg preserveAspectRatio="none" width="100%" height="100%" overflow="visible" style="display: block;" viewBox="0 0 21.8206 26.6667" fill="none" xmlns="http://www.w3.org/2000/svg">
<g id="Group 1171280025">
<path id="Vector" d="M13.3333 1.21212H3.63636C2.99341 1.21212 2.3768 1.46753 1.92217 1.92217C1.46753 2.3768 1.21212 2.99341 1.21212 3.63636V23.0303C1.21212 23.6733 1.46753 24.2899 1.92217 24.7445C2.3768 25.1991 2.99341 25.4545 3.63636 25.4545H18.1818C18.8248 25.4545 19.4414 25.1991 19.896 24.7445C20.3507 24.2899 20.6061 23.6733 20.6061 23.0303V8.48485L13.3333 1.21212Z" stroke="#0473E9" stroke-width="2.42424" stroke-linecap="round" stroke-linejoin="round"/>
<path id="Vector_2" d="M13.3357 1.21224V8.48497H20.6085" stroke="#0473E9" stroke-width="2.42424" stroke-linecap="round" stroke-linejoin="round"/>
<path id="Vector_3" d="M15.7603 14.5461H6.06334" stroke="#0473E9" stroke-width="2.42424" stroke-linecap="round" stroke-linejoin="round"/>
<path id="Vector_4" d="M15.7603 19.3943H6.06334" stroke="#0473E9" stroke-width="2.42424" stroke-linecap="round" stroke-linejoin="round"/>
<path id="Vector_5" d="M8.48758 9.69706H7.27546H6.06334" stroke="#0473E9" stroke-width="2.42424" stroke-linecap="round" stroke-linejoin="round"/>
</g>
</svg>
