<svg preserveAspectRatio="none" width="100%" height="100%" overflow="visible" style="display: block;" viewBox="0 0 40 40" fill="none" xmlns="http://www.w3.org/2000/svg">
<g id="Frame 1171280038">
<path id="&#244;&#128;&#143;&#173;" d="M13.4882 29.9819C12.5403 29.9819 11.8246 29.7433 11.3412 29.2662C10.8641 28.7891 10.6255 28.0859 10.6255 27.1568V18.0036C10.6255 17.0619 10.8641 16.3557 11.3412 15.8848C11.8246 15.4077 12.5403 15.1692 13.4882 15.1692H26.5118C27.4597 15.1692 28.1723 15.4077 28.6494 15.8848C29.1328 16.362 29.3745 17.0682 29.3745 18.0036V27.1568C29.3745 28.0859 29.1328 28.7891 28.6494 29.2662C28.1723 29.7433 27.4597 29.9819 26.5118 29.9819H13.4882ZM13.5542 28.381H26.4364C26.8633 28.381 27.1929 28.268 27.4252 28.042C27.6575 27.8223 27.7736 27.4864 27.7736 27.0344V18.1166C27.7736 17.6709 27.6575 17.335 27.4252 17.109C27.1929 16.883 26.8633 16.77 26.4364 16.77H13.5542C13.1273 16.77 12.8008 16.883 12.5748 17.109C12.3488 17.335 12.2358 17.6709 12.2358 18.1166V27.0344C12.2358 27.4864 12.3488 27.8223 12.5748 28.042C12.8008 28.268 13.1273 28.381 13.5542 28.381ZM12.556 13.719C12.6125 13.3046 12.7506 12.9876 12.9703 12.7679C13.1963 12.5419 13.5416 12.4288 14.0062 12.4288H26.0032C26.4615 12.4288 26.8005 12.5419 27.0203 12.7679C27.2463 12.9876 27.3938 13.3046 27.4629 13.719H12.556ZM14.3734 11.2047C14.4048 10.8154 14.5304 10.5204 14.7501 10.3195C14.9761 10.1186 15.2994 10.0181 15.72 10.0181H24.2894C24.71 10.0181 25.0333 10.1186 25.2593 10.3195C25.4853 10.5204 25.6109 10.8154 25.636 11.2047H14.3734Z" fill="#F5F5F5"/>
</g>
</svg>
