<svg width="26" height="26" viewBox="0 0 25.9167 25.9048" fill="none" xmlns="http://www.w3.org/2000/svg">
<path d="M6.14154 22.8817C5.09007 22.8817 4.30944 22.6268 3.79963 22.117C3.28983 21.6072 3.03493 20.8265 3.03493 19.775V17.3734C3.03493 17.1663 2.96324 16.991 2.81985 16.8477L1.12316 15.139C0.382353 14.3982 0.00796569 13.6693 0 12.9524C0 12.2355 0.374387 11.5027 1.12316 10.7539L2.81985 9.05721C2.96324 8.91383 3.03493 8.73859 3.03493 8.53148V6.12982C3.03493 5.06242 3.28585 4.2778 3.78768 3.77596C4.29749 3.27413 5.08211 3.02321 6.14154 3.02321H8.5432C8.75031 3.02321 8.92157 2.95152 9.05699 2.80813L10.7656 1.11144C11.5144 0.370634 12.2472 0.000229248 12.9642 0.000229248C13.6811 -0.00773644 14.4099 0.362668 15.1507 1.11144L16.8594 2.80813C17.0028 2.95152 17.178 3.02321 17.3851 3.02321H19.7868C20.8462 3.02321 21.6268 3.27811 22.1287 3.78791C22.6385 4.29772 22.8934 5.07835 22.8934 6.12982V8.53148C22.8934 8.73859 22.9651 8.91383 23.1085 9.05721L24.8051 10.7539C25.546 11.5027 25.9164 12.2355 25.9164 12.9524C25.9243 13.6693 25.5539 14.3982 24.8051 15.139L23.1085 16.8477C22.9651 16.991 22.8934 17.1663 22.8934 17.3734V19.775C22.8934 20.8265 22.6385 21.6072 22.1287 22.117C21.6189 22.6268 20.8382 22.8817 19.7868 22.8817H17.3851C17.178 22.8817 17.0028 22.9534 16.8594 23.0967L15.1507 24.7815C14.4099 25.5303 13.6811 25.9046 12.9642 25.9046C12.2472 25.9126 11.5144 25.5382 10.7656 24.7815L9.05699 23.0967C8.92157 22.9534 8.75031 22.8817 8.5432 22.8817H6.14154ZM11.7215 18.5443C12.1676 18.5443 12.526 18.3372 12.7969 17.923L18.0781 9.73828C18.1657 9.61083 18.2374 9.4794 18.2932 9.34398C18.349 9.2006 18.3768 9.0612 18.3768 8.92578C18.3768 8.61512 18.2613 8.3642 18.0303 8.17302C17.7993 7.98185 17.5365 7.88626 17.2417 7.88626C16.8594 7.88626 16.5407 8.09337 16.2858 8.50758L11.6857 15.8679L9.54688 13.1914C9.40349 13.0082 9.25613 12.8768 9.10478 12.7971C8.95343 12.7174 8.78615 12.6776 8.60294 12.6776C8.30025 12.6776 8.04136 12.7852 7.82629 13.0002C7.61918 13.2153 7.51562 13.4742 7.51562 13.7769C7.51562 14.0716 7.62316 14.3504 7.83824 14.6133L10.5744 17.9469C10.7417 18.1461 10.917 18.2974 11.1002 18.401C11.2834 18.4966 11.4905 18.5443 11.7215 18.5443Z" fill="#000063"/>
</svg>
