<svg preserveAspectRatio="none" width="100%" height="100%" overflow="visible" style="display: block;" viewBox="0 0 19.0056 18.9968" fill="none" xmlns="http://www.w3.org/2000/svg">
<g id="Group 1171280024">
<path id="&#244;&#128;&#135;&#187;" d="M4.5038 16.7799C3.73272 16.7799 3.16025 16.5929 2.7864 16.2191C2.41254 15.8452 2.22561 15.2727 2.22561 14.5017V12.7405C2.22561 12.5886 2.17304 12.4601 2.06789 12.3549L0.823652 11.1019C0.280392 10.5587 0.0058415 10.0242 0 9.49842C0 8.97268 0.274551 8.43527 0.823652 7.88617L2.06789 6.64192C2.17304 6.53678 2.22561 6.40826 2.22561 6.25639V4.49517C2.22561 3.71241 2.40962 3.13702 2.77764 2.76901C3.15149 2.40099 3.72688 2.21699 4.5038 2.21699H6.26501C6.41689 2.21699 6.54248 2.16441 6.64179 2.05927L7.89479 0.815025C8.44389 0.271765 8.98131 0.00013515 9.50705 0.00013515C10.0328 -0.00570635 10.5673 0.265923 11.1105 0.815025L12.3635 2.05927C12.4687 2.16441 12.5972 2.21699 12.7491 2.21699H14.5103C15.2872 2.21699 15.8597 2.40391 16.2277 2.77777C16.6016 3.15163 16.7885 3.72409 16.7885 4.49517V6.25639C16.7885 6.40826 16.8411 6.53678 16.9462 6.64192L18.1904 7.88617C18.7337 8.43527 19.0053 8.97268 19.0053 9.49842C19.0112 10.0242 18.7395 10.5587 18.1904 11.1019L16.9462 12.3549C16.8411 12.4601 16.7885 12.5886 16.7885 12.7405V14.5017C16.7885 15.2727 16.6016 15.8452 16.2277 16.2191C15.8538 16.5929 15.2814 16.7799 14.5103 16.7799H12.7491C12.5972 16.7799 12.4687 16.8324 12.3635 16.9376L11.1105 18.1731C10.5673 18.7222 10.0328 18.9967 9.50705 18.9967C8.98131 19.0025 8.44389 18.728 7.89479 18.1731L6.64179 16.9376C6.54248 16.8324 6.41689 16.7799 6.26501 16.7799H4.5038ZM8.59577 13.5992C8.9229 13.5992 9.18576 13.4473 9.38437 13.1435L13.2573 7.14137C13.3215 7.04791 13.3741 6.95152 13.415 6.85222C13.4559 6.74707 13.4763 6.64485 13.4763 6.54554C13.4763 6.31772 13.3916 6.13371 13.2222 5.99352C13.0528 5.85332 12.8601 5.78322 12.6439 5.78322C12.3635 5.78322 12.1299 5.9351 11.943 6.23886L8.56949 11.6364L7.00104 9.67367C6.89589 9.53931 6.78783 9.44293 6.67684 9.38451C6.56585 9.3261 6.44318 9.29689 6.30882 9.29689C6.08685 9.29689 5.897 9.37575 5.73928 9.53347C5.5874 9.69119 5.51146 9.88104 5.51146 10.103C5.51146 10.3192 5.59032 10.5236 5.74804 10.7164L7.7546 13.161C7.87727 13.3071 8.00578 13.4181 8.14013 13.494C8.27449 13.5641 8.42637 13.5992 8.59577 13.5992Z" fill="#06015D"/>
</g>
</svg>
