<svg preserveAspectRatio="none" width="100%" height="100%" overflow="visible" style="display: block;" viewBox="0 0 25 25" fill="none" xmlns="http://www.w3.org/2000/svg">
<g id="more">
<path id="&#244;&#128;&#141;&#160;" d="M5.61523 14.3066C5.2832 14.3066 4.98047 14.2285 4.70703 14.0723C4.43359 13.9095 4.21224 13.6914 4.04297 13.418C3.88021 13.1445 3.79883 12.8385 3.79883 12.5C3.79883 12.1615 3.88021 11.8555 4.04297 11.582C4.21224 11.3086 4.43359 11.0938 4.70703 10.9375C4.98047 10.7747 5.2832 10.6934 5.61523 10.6934C5.94727 10.6934 6.25 10.7747 6.52344 10.9375C6.80339 11.0938 7.02474 11.3086 7.1875 11.582C7.35026 11.8555 7.43164 12.1615 7.43164 12.5C7.43164 12.8385 7.35026 13.1445 7.1875 13.418C7.02474 13.6914 6.80339 13.9095 6.52344 14.0723C6.25 14.2285 5.94727 14.3066 5.61523 14.3066ZM12.5 14.3066C12.168 14.3066 11.8652 14.2285 11.5918 14.0723C11.3184 13.9095 11.097 13.6914 10.9277 13.418C10.765 13.1445 10.6836 12.8385 10.6836 12.5C10.6836 12.1615 10.765 11.8555 10.9277 11.582C11.097 11.3086 11.3184 11.0938 11.5918 10.9375C11.8652 10.7747 12.168 10.6934 12.5 10.6934C12.832 10.6934 13.1348 10.7747 13.4082 10.9375C13.6882 11.0938 13.9095 11.3086 14.0723 11.582C14.235 11.8555 14.3164 12.1615 14.3164 12.5C14.3164 12.8385 14.235 13.1445 14.0723 13.418C13.9095 13.6914 13.6882 13.9095 13.4082 14.0723C13.1348 14.2285 12.832 14.3066 12.5 14.3066ZM19.3945 14.3066C19.056 14.3066 18.75 14.2285 18.4766 14.0723C18.2031 13.9095 17.9818 13.6914 17.8125 13.418C17.6497 13.1445 17.5684 12.8385 17.5684 12.5C17.5684 12.1615 17.6497 11.8555 17.8125 11.582C17.9818 11.3086 18.2031 11.0938 18.4766 10.9375C18.75 10.7747 19.056 10.6934 19.3945 10.6934C19.7201 10.6934 20.0195 10.7747 20.293 10.9375C20.5729 11.0938 20.7943 11.3086 20.957 11.582C21.1198 11.8555 21.2012 12.1615 21.2012 12.5C21.2012 12.8385 21.1198 13.1445 20.957 13.418C20.7943 13.6914 20.5729 13.9095 20.293 14.0723C20.0195 14.2285 19.7201 14.3066 19.3945 14.3066Z" fill="#046FE4"/>
</g>
</svg>
