<svg preserveAspectRatio="none" width="100%" height="100%" overflow="visible" style="display: block;" viewBox="0 0 25 25" fill="none" xmlns="http://www.w3.org/2000/svg">
<g id="Frame 1171280027">
<path id="&#244;&#128;&#155;&#166;" d="M4.13574 11.7969C3.43913 11.7969 2.91829 11.6243 2.57324 11.2793C2.22819 10.9342 2.05566 10.4036 2.05566 9.6875V5.9375C2.05566 5.22135 2.22819 4.69076 2.57324 4.3457C2.91829 4.00065 3.43913 3.82812 4.13574 3.82812H9.71191C10.415 3.82812 10.9391 4.00065 11.2842 4.3457C11.6292 4.69076 11.8018 5.22135 11.8018 5.9375V9.6875C11.8018 10.4036 11.6292 10.9342 11.2842 11.2793C10.9391 11.6243 10.415 11.7969 9.71191 11.7969H4.13574ZM4.14551 10.1855H9.69238C9.85514 10.1855 9.97559 10.1465 10.0537 10.0684C10.1383 9.98372 10.1807 9.85677 10.1807 9.6875V5.9375C10.1807 5.76823 10.1383 5.64453 10.0537 5.56641C9.97559 5.48828 9.85514 5.44922 9.69238 5.44922H4.14551C3.98275 5.44922 3.8623 5.48828 3.78418 5.56641C3.71257 5.64453 3.67676 5.76823 3.67676 5.9375V9.6875C3.67676 9.85677 3.71257 9.98372 3.78418 10.0684C3.8623 10.1465 3.98275 10.1855 4.14551 10.1855ZM15.2881 11.7969C14.585 11.7969 14.0609 11.6243 13.7158 11.2793C13.3773 10.9342 13.208 10.4036 13.208 9.6875V5.9375C13.208 5.22135 13.3773 4.69076 13.7158 4.3457C14.0609 4.00065 14.585 3.82812 15.2881 3.82812H20.8545C21.5641 3.82812 22.0882 4.00065 22.4268 4.3457C22.7718 4.69076 22.9443 5.22135 22.9443 5.9375V9.6875C22.9443 10.4036 22.7718 10.9342 22.4268 11.2793C22.0882 11.6243 21.5641 11.7969 20.8545 11.7969H15.2881ZM15.2979 10.1855H20.8545C21.0107 10.1855 21.1279 10.1465 21.2061 10.0684C21.2907 9.98372 21.333 9.85677 21.333 9.6875V5.9375C21.333 5.76823 21.2907 5.64453 21.2061 5.56641C21.1279 5.48828 21.0107 5.44922 20.8545 5.44922H15.2979C15.1351 5.44922 15.0146 5.48828 14.9365 5.56641C14.8584 5.64453 14.8193 5.76823 14.8193 5.9375V9.6875C14.8193 9.85677 14.8584 9.98372 14.9365 10.0684C15.0146 10.1465 15.1351 10.1855 15.2979 10.1855ZM4.13574 21.1719C3.43913 21.1719 2.91829 20.9993 2.57324 20.6543C2.22819 20.3092 2.05566 19.7786 2.05566 19.0625V15.3125C2.05566 14.6029 2.22819 14.0755 2.57324 13.7305C2.91829 13.3854 3.43913 13.2129 4.13574 13.2129H9.71191C10.415 13.2129 10.9391 13.3854 11.2842 13.7305C11.6292 14.0755 11.8018 14.6029 11.8018 15.3125V19.0625C11.8018 19.7786 11.6292 20.3092 11.2842 20.6543C10.9391 20.9993 10.415 21.1719 9.71191 21.1719H4.13574ZM4.14551 19.5605H9.69238C9.85514 19.5605 9.97559 19.5182 10.0537 19.4336C10.1383 19.3555 10.1807 19.235 10.1807 19.0723V15.3223C10.1807 15.153 10.1383 15.0293 10.0537 14.9512C9.97559 14.8665 9.85514 14.8242 9.69238 14.8242H4.14551C3.98275 14.8242 3.8623 14.8665 3.78418 14.9512C3.71257 15.0293 3.67676 15.153 3.67676 15.3223V19.0723C3.67676 19.235 3.71257 19.3555 3.78418 19.4336C3.8623 19.5182 3.98275 19.5605 4.14551 19.5605ZM15.2881 21.1719C14.585 21.1719 14.0609 20.9993 13.7158 20.6543C13.3773 20.3092 13.208 19.7786 13.208 19.0625V15.3125C13.208 14.6029 13.3773 14.0755 13.7158 13.7305C14.0609 13.3854 14.585 13.2129 15.2881 13.2129H20.8545C21.5641 13.2129 22.0882 13.3854 22.4268 13.7305C22.7718 14.0755 22.9443 14.6029 22.9443 15.3125V19.0625C22.9443 19.7786 22.7718 20.3092 22.4268 20.6543C22.0882 20.9993 21.5641 21.1719 20.8545 21.1719H15.2881ZM15.2979 19.5605H20.8545C21.0107 19.5605 21.1279 19.5182 21.2061 19.4336C21.2907 19.3555 21.333 19.235 21.333 19.0723V15.3223C21.333 15.153 21.2907 15.0293 21.2061 14.9512C21.1279 14.8665 21.0107 14.8242 20.8545 14.8242H15.2979C15.1351 14.8242 15.0146 14.8665 14.9365 14.9512C14.8584 15.0293 14.8193 15.153 14.8193 15.3223V19.0723C14.8193 19.235 14.8584 19.3555 14.9365 19.4336C15.0146 19.5182 15.1351 19.5605 15.2979 19.5605Z" fill="#616161"/>
</g>
</svg>
