<svg preserveAspectRatio="none" width="100%" height="100%" overflow="visible" style="display: block;" viewBox="0 0 41.2177 11.9531" fill="none" xmlns="http://www.w3.org/2000/svg">
<path id="&#244;&#128;&#134;&#145;" d="M1.57597 4.7764C1.10722 4.5986 0.727371 4.31573 0.436422 3.9278C0.145474 3.52371 0 3.09537 0 2.64278C0 1.86692 0.250538 1.23653 0.751616 0.751617C1.25269 0.25054 1.85884 0 2.57004 0C2.95797 0 3.37823 0.0808204 3.83082 0.242458C4.2834 0.404096 4.67942 0.557651 5.01886 0.703125L22.1606 7.51616H19.0814L36.1988 0.703125C36.5544 0.557651 36.9585 0.404096 37.4111 0.242458C37.8637 0.0808204 38.2759 0 38.6476 0C39.375 0 39.9811 0.25054 40.4661 0.751617C40.9671 1.23653 41.2177 1.86692 41.2177 2.64278C41.2177 3.09537 41.0722 3.52371 40.7812 3.9278C40.4903 4.31573 40.1105 4.5986 39.6417 4.7764L24.1002 11.0075C23.5183 11.2338 22.9283 11.452 22.3303 11.6622C21.7322 11.8561 21.1665 11.9531 20.6331 11.9531C20.0835 11.9531 19.5097 11.8561 18.9116 11.6622C18.3136 11.452 17.7317 11.2338 17.1659 11.0075L1.57597 4.7764Z" fill="#346AD7"/>
</svg>
