<svg width="25" height="25" viewBox="0 0 25 25" fill="none" xmlns="http://www.w3.org/2000/svg">
<rect width="25" height="25" rx="12.5" fill="#00BCED"/>
<path d="M18.0599 8.98215C17.9299 8.73087 17.7132 8.39584 17.4099 8.14456C17.2799 8.01893 17.1065 7.93517 16.8899 7.89329C16.7165 7.85141 16.5432 7.80953 16.3698 7.80953H16.3265C16.1098 7.80953 15.6764 7.85141 15.4164 8.18644C15.2864 8.31208 15.2431 8.52148 15.2864 8.73087C15.3298 8.89839 15.4164 9.02403 15.5898 9.06591C15.5898 9.06591 15.6331 9.06591 15.7198 9.10779C15.6764 9.10779 15.6331 9.19154 15.6331 9.19154C15.5464 9.31718 15.3298 9.52658 14.723 9.52658H14.6797C14.3764 9.52658 14.1163 9.44282 13.813 9.06591C13.6396 8.81463 13.5096 8.43772 13.5096 7.76765C13.5096 7.43262 13.4663 7.13946 13.3796 6.93007C13.3363 6.76255 13.2063 6.63691 13.0763 6.55315C12.9896 6.4694 12.8596 6.42752 12.6862 6.38564C12.5129 6.26 12.2529 6.26 12.0362 6.26C11.7762 6.26 11.6462 6.30188 11.5595 6.42752C11.5595 6.42752 11.5595 6.4694 11.5162 6.4694H11.3428C11.2128 6.4694 11.0828 6.51128 10.9528 6.51128C10.6928 6.55315 10.5628 6.63691 10.3894 6.76255C10.3461 6.80443 10.2161 6.93007 10.1727 7.09758C10.1294 7.22322 10.1727 7.30698 10.2161 7.34886C10.2161 7.34886 10.2161 7.39074 10.2594 7.39074C10.3461 7.30698 10.4761 7.2651 10.6928 7.2651C10.9528 7.2651 11.3428 7.39074 11.4728 7.60013C11.6462 7.89329 11.6028 8.10268 11.5595 8.39584C11.4728 9.10779 11.1695 9.4847 10.6061 9.56846H10.3028C9.86939 9.56846 9.56604 9.44282 9.43603 9.19154C9.34936 9.10779 9.34936 9.06591 9.34936 9.06591C9.34936 9.06591 9.39269 9.06591 9.43603 9.02403C9.60937 8.94027 9.69605 8.85651 9.73938 8.68899C9.78272 8.52148 9.73938 8.31208 9.60937 8.14456C9.39269 7.93517 9.08934 7.80953 8.69931 7.80953C8.48263 7.80953 8.30929 7.85141 8.17928 7.89329C7.65924 8.01893 7.26922 8.35396 6.96586 8.98215C6.74918 9.40094 6.57584 9.98725 6.5325 10.5736C6.48917 11.1599 6.48917 11.6624 6.5325 12.1231C6.61917 12.8769 6.74918 13.3376 6.92253 13.7983C7.09587 14.3008 7.35589 14.7615 7.61591 15.1803C7.70258 15.3478 7.74592 15.4315 7.78925 15.4734C7.83259 15.4315 7.87592 15.3897 7.91926 15.3059C8.00593 15.2221 8.30929 14.8452 8.39596 14.7196C8.52597 14.6358 8.65598 14.3846 8.74265 14.217L8.78599 14.1333L8.87266 14.217C8.95933 14.3008 9.00267 14.3846 9.00267 14.5102C9.00267 14.6358 8.95933 14.7615 8.91599 15.0128C8.82932 15.264 8.69931 15.5991 8.52597 15.8503C8.52597 15.8922 8.48263 15.9341 8.48263 15.9341C8.39596 16.1016 8.35262 16.1854 8.39596 16.2272C8.4393 16.2272 8.5693 16.1854 8.69931 16.0597C8.82932 15.976 9.13267 15.7247 9.5227 15.1803C9.82605 14.8034 10.0427 14.3846 10.2594 13.9239L10.3028 13.8401L10.3894 13.882C10.4328 13.882 10.4761 13.9239 10.4761 13.9658C10.5194 14.0495 10.5194 14.1333 10.5194 14.2589C10.4761 14.5521 10.3028 14.9709 10.1727 15.264C9.95606 15.7666 9.5227 16.3529 9.21935 16.7717C9.21935 16.7717 9.13267 16.8554 9.13267 16.8973C9.17601 16.9392 9.21935 16.9811 9.30602 17.023L9.43603 17.1067C9.86939 17.4417 10.2594 17.7349 10.7795 17.9862C11.1695 18.1956 11.9929 18.6144 12.5129 18.74C13.0329 18.6144 13.8563 18.1956 14.2463 17.9862C14.7664 17.693 15.1564 17.4417 15.5898 17.1067L15.7198 17.023C15.8065 16.9811 15.8498 16.8973 15.8931 16.8973C15.8931 16.8973 15.8498 16.8554 15.8498 16.8136L15.8065 16.7717C15.5031 16.3529 15.0697 15.7666 14.8531 15.264C14.723 14.9709 14.5497 14.5102 14.5064 14.2589C14.5064 14.1333 14.5064 14.0495 14.5497 13.9658C14.5497 13.9239 14.593 13.9239 14.6364 13.882C14.6797 13.8401 14.723 13.8401 14.723 13.8401L14.7664 13.9239C14.9831 14.3846 15.2431 14.7615 15.5031 15.1803C15.8931 15.7247 16.1965 15.976 16.3265 16.0597C16.4565 16.1435 16.5865 16.2272 16.6298 16.2272H16.6732C16.7165 16.1854 16.6732 16.1016 16.5865 15.9341C16.5865 15.8922 16.5432 15.8503 16.5432 15.8503C16.3698 15.5572 16.2398 15.264 16.1531 15.0128C16.0665 14.7615 16.0231 14.6358 16.0231 14.5102C16.0231 14.3846 16.0665 14.2589 16.1531 14.217L16.2398 14.1752L16.2831 14.2589C16.3698 14.4264 16.5432 14.6777 16.5865 14.7615C16.6732 14.8871 16.9765 15.2221 17.0632 15.3478L17.1932 15.4734C17.2365 15.4315 17.2799 15.3478 17.3666 15.2221V15.1803C17.6266 14.7615 17.8433 14.3008 18.0599 13.7983C18.2333 13.2957 18.3633 12.8769 18.45 12.1231C18.4933 11.6624 18.5366 11.1599 18.45 10.5736C18.45 9.98725 18.32 9.40094 18.0599 8.98215Z" fill="white"/>
</svg>
