<svg preserveAspectRatio="none" width="100%" height="100%" overflow="visible" style="display: block;" viewBox="0 0 25 25" fill="none" xmlns="http://www.w3.org/2000/svg">
<g id="chevron">
<path id="&#244;&#128;&#134;&#138;" d="M18.7207 12.5C18.7207 12.6549 18.6934 12.7962 18.6387 12.9238C18.584 13.0514 18.4974 13.1699 18.3789 13.2793L8.09766 23.2324C7.89714 23.4329 7.64648 23.5332 7.3457 23.5332C7.14518 23.5332 6.96289 23.4876 6.79883 23.3965C6.64388 23.3145 6.51628 23.1914 6.41602 23.0273C6.32487 22.8633 6.2793 22.681 6.2793 22.4805C6.2793 22.1888 6.37956 21.9382 6.58008 21.7285L16.123 12.5L6.58008 3.28516C6.37956 3.06641 6.2793 2.81576 6.2793 2.5332C6.2793 2.32357 6.32487 2.14128 6.41602 1.98633C6.51628 1.82227 6.64388 1.69466 6.79883 1.60352C6.96289 1.51237 7.14518 1.4668 7.3457 1.4668C7.64648 1.4668 7.89714 1.57161 8.09766 1.78125L18.3789 11.7344C18.4974 11.8438 18.584 11.9622 18.6387 12.0898C18.6934 12.2174 18.7207 12.3542 18.7207 12.5Z" fill="#B1B1B1"/>
</g>
</svg>
