<svg preserveAspectRatio="none" width="100%" height="100%" overflow="visible" style="display: block;" viewBox="0 0 40 40" fill="none" xmlns="http://www.w3.org/2000/svg">
<g id="Frame 1171280044">
<path id="&#244;&#128;&#135;&#165;" d="M20 37.1443C19.7794 37.1443 19.6017 37.0646 19.4668 36.9053C19.332 36.7582 19.2646 36.5621 19.2646 36.3169V31.5184L15.3669 33.743C15.1708 33.8656 14.9747 33.9085 14.7786 33.8717C14.5947 33.8472 14.4476 33.7369 14.3373 33.5408C14.2393 33.3569 14.2209 33.1731 14.2822 32.9892C14.3435 32.8053 14.4783 32.6583 14.6867 32.548L19.2646 29.9189V26.9221L19.4484 21.0388L14.3741 24.1459L11.7818 25.6167V30.8381C11.7818 31.0833 11.7144 31.2855 11.5795 31.4448C11.457 31.5919 11.2976 31.6655 11.1015 31.6655C10.8686 31.6655 10.6909 31.5919 10.5683 31.4448C10.4458 31.2855 10.3845 31.0833 10.3845 30.8381V26.444L6.24781 28.8157C6.03944 28.9383 5.83107 28.9812 5.62271 28.9444C5.4266 28.9077 5.27339 28.779 5.16308 28.5583C5.04051 28.3868 5.00986 28.2029 5.07115 28.0068C5.14469 27.8107 5.28564 27.6513 5.49401 27.5288L9.64908 25.1387L5.78817 22.8773C5.57981 22.7547 5.44498 22.6138 5.3837 22.4544C5.32241 22.2828 5.34693 22.0806 5.45724 21.8477C5.56755 21.6884 5.71463 21.5903 5.89849 21.5536C6.08234 21.5045 6.27845 21.5413 6.48682 21.6639L11.0464 24.3113L13.6387 22.8221L18.9888 20.0092L13.6203 17.2146L11.028 15.707L6.54197 18.3361C6.32135 18.4587 6.10685 18.5016 5.89849 18.4648C5.70238 18.4281 5.54917 18.3239 5.43885 18.1523C5.32854 17.9317 5.30403 17.7355 5.36531 17.5639C5.43885 17.3924 5.58594 17.2391 5.80656 17.1043L9.61231 14.8981L5.47562 12.508C5.26726 12.3854 5.13243 12.2261 5.07115 12.03C5.00986 11.8339 5.04051 11.6316 5.16308 11.4233C5.26113 11.2394 5.40821 11.1291 5.60432 11.0923C5.81269 11.0556 6.02718 11.0923 6.24781 11.2026L10.3845 13.6111L10.4029 9.16187C10.4029 8.91674 10.458 8.72676 10.5683 8.59193C10.6909 8.44485 10.8686 8.37131 11.1015 8.37131C11.3099 8.37131 11.4754 8.44485 11.5979 8.59193C11.7205 8.72676 11.7818 8.91674 11.7818 9.16187V14.4201L14.3741 15.9093L19.4484 18.998L19.2646 13.0779V10.0811L14.6867 7.47043C14.4783 7.34786 14.3435 7.19465 14.2822 7.01079C14.2209 6.82694 14.2393 6.64922 14.3373 6.47762C14.4476 6.26926 14.5947 6.15282 14.7786 6.1283C14.9747 6.09153 15.1708 6.13443 15.3669 6.257L19.2646 8.48162V3.68306C19.2646 3.43792 19.332 3.24181 19.4668 3.09473C19.6017 2.93539 19.7794 2.85572 20 2.85572C20.2329 2.85572 20.4167 2.93539 20.5516 3.09473C20.6864 3.24181 20.7538 3.43792 20.7538 3.68306V8.48162L24.5596 6.257C24.7679 6.13443 24.9702 6.09153 25.1663 6.1283C25.3624 6.15282 25.5217 6.26926 25.6443 6.47762C25.7423 6.64922 25.7607 6.83307 25.6994 7.02918C25.6504 7.21303 25.5156 7.36624 25.295 7.48881L20.7538 10.0811V13.0779L20.5516 18.998L25.6259 15.9093L28.1998 14.4201V9.16187C28.1998 8.91674 28.2611 8.72676 28.3837 8.59193C28.5063 8.44485 28.6717 8.37131 28.8801 8.37131C29.113 8.35905 29.2846 8.42646 29.3949 8.57354C29.5175 8.70837 29.5787 8.90448 29.5787 9.16187L29.5971 13.6111L33.7706 11.2026C33.9789 11.0801 34.1812 11.0433 34.3773 11.0923C34.5734 11.1291 34.7266 11.2394 34.8369 11.4233C34.9595 11.6316 34.9901 11.8339 34.9289 12.03C34.8676 12.2261 34.7327 12.3854 34.5244 12.508L30.3693 14.8981L34.1751 17.1043C34.3957 17.2391 34.5428 17.3985 34.6163 17.5823C34.6898 17.7539 34.6715 17.9378 34.5611 18.1339C34.4508 18.3055 34.2915 18.4158 34.0831 18.4648C33.887 18.5016 33.6848 18.4587 33.4764 18.3361L28.9536 15.6887L26.3613 17.2146L21.0112 20.0092L26.3613 22.8221L28.9169 24.3113L33.4948 21.6639C33.7154 21.5413 33.9115 21.5045 34.0831 21.5536C34.267 21.5903 34.4202 21.7006 34.5428 21.8845C34.6653 22.0683 34.6898 22.2522 34.6163 22.436C34.5428 22.6076 34.4018 22.7547 34.1934 22.8773L30.3509 25.1387L34.506 27.5288C34.7144 27.6391 34.8431 27.7923 34.8921 27.9884C34.9534 28.1845 34.935 28.3806 34.8369 28.5767C34.7266 28.7728 34.5734 28.8954 34.3773 28.9444C34.1812 28.9935 33.9728 28.9506 33.7522 28.8157L29.5971 26.4257V30.8381C29.5971 31.0833 29.5358 31.2855 29.4133 31.4448C29.303 31.5919 29.1314 31.6655 28.8985 31.6655C28.7024 31.6655 28.5369 31.5919 28.4021 31.4448C28.2673 31.2855 28.1998 31.0833 28.1998 30.8381L28.2182 25.6167L25.6259 24.1275L20.5516 21.0388L20.7538 26.9221V29.9189L25.295 32.5112C25.5156 32.646 25.6504 32.8053 25.6994 32.9892C25.7607 33.1731 25.7423 33.3569 25.6443 33.5408C25.5217 33.7369 25.3624 33.8472 25.1663 33.8717C24.9702 33.9085 24.7679 33.8656 24.5596 33.743L20.7538 31.5368V36.3169C20.7538 36.5621 20.6864 36.7582 20.5516 36.9053C20.4167 37.0646 20.2329 37.1443 20 37.1443Z" fill="white"/>
</g>
</svg>
