<svg preserveAspectRatio="none" width="100%" height="100%" overflow="visible" style="display: block;" viewBox="0 0 40 40" fill="none" xmlns="http://www.w3.org/2000/svg">
<g id="Frame 1171280033">
<path id="&#244;&#128;&#138;&#177;" d="M10.8984 19.7135V17.2526C10.8984 16.9661 10.9983 16.7231 11.1979 16.5234C11.4062 16.3151 11.658 16.2109 11.9531 16.2109C12.2396 16.2109 12.4826 16.3151 12.6823 16.5234C12.8906 16.7231 12.9948 16.9661 12.9948 17.2526V19.6354C12.9948 21.033 13.2856 22.2569 13.8672 23.3073C14.4575 24.3576 15.2778 25.1736 16.3281 25.7552C17.3785 26.3281 18.6024 26.6146 20 26.6146C21.3976 26.6146 22.6215 26.3281 23.6719 25.7552C24.7222 25.1736 25.5382 24.3576 26.1198 23.3073C26.7101 22.2569 27.0052 21.033 27.0052 19.6354V17.2526C27.0052 16.9661 27.105 16.7231 27.3047 16.5234C27.513 16.3151 27.7648 16.2109 28.0599 16.2109C28.3464 16.2109 28.5894 16.3151 28.7891 16.5234C28.9974 16.7231 29.1016 16.9661 29.1016 17.2526V19.7135C29.1016 21.3715 28.7587 22.8385 28.0729 24.1146C27.3958 25.3819 26.4497 26.4019 25.2344 27.1745C24.0278 27.947 22.6302 28.4028 21.0417 28.5417V31.224H25.5859C25.8724 31.224 26.1155 31.3238 26.3151 31.5234C26.5234 31.7318 26.6276 31.9835 26.6276 32.2786C26.6276 32.5738 26.5234 32.8212 26.3151 33.0208C26.1155 33.2205 25.8724 33.3203 25.5859 33.3203H14.4271C14.1319 33.3203 13.8802 33.2205 13.6719 33.0208C13.4635 32.8212 13.3594 32.5738 13.3594 32.2786C13.3594 31.9835 13.4635 31.7318 13.6719 31.5234C13.8802 31.3238 14.1319 31.224 14.4271 31.224H18.9583V28.5417C17.3698 28.4028 15.9679 27.947 14.7526 27.1745C13.546 26.4019 12.5998 25.3819 11.9141 24.1146C11.237 22.8385 10.8984 21.3715 10.8984 19.7135ZM20 24.0104C19.1753 24.0104 18.4418 23.8194 17.7995 23.4375C17.1658 23.0556 16.671 22.526 16.3151 21.849C15.9592 21.1632 15.7812 20.3733 15.7812 19.4792V11.2109C15.7812 10.3168 15.9592 9.53125 16.3151 8.85417C16.671 8.1684 17.1658 7.63455 17.7995 7.2526C18.4418 6.87066 19.1753 6.67969 20 6.67969C20.8247 6.67969 21.5538 6.87066 22.1875 7.2526C22.8299 7.63455 23.329 8.1684 23.6849 8.85417C24.0408 9.53125 24.2187 10.3168 24.2187 11.2109V19.4792C24.2187 20.3733 24.0408 21.1632 23.6849 21.849C23.329 22.526 22.8299 23.0556 22.1875 23.4375C21.5538 23.8194 20.8247 24.0104 20 24.0104Z" fill="#046FE4"/>
</g>
</svg>
