<svg preserveAspectRatio="none" width="100%" height="100%" overflow="visible" style="display: block;" viewBox="0 0 15 15" fill="none" xmlns="http://www.w3.org/2000/svg">
<g id="phone-incoming" clip-path="url(#clip0_0_24)">
<path id="Vector" d="M10.0001 1.24988V4.99988H13.7501" stroke="#006FEB" stroke-width="1.25" stroke-linecap="round" stroke-linejoin="round"/>
<path id="Vector_2" d="M14.3751 0.625122L10.0001 5.00012" stroke="#006FEB" stroke-width="1.25" stroke-linecap="round" stroke-linejoin="round"/>
<path id="Vector_3" d="M13.7503 10.5749V12.4499C13.751 12.624 13.7153 12.7963 13.6456 12.9558C13.5758 13.1153 13.4736 13.2584 13.3453 13.3761C13.217 13.4938 13.0656 13.5834 12.9007 13.6391C12.7358 13.6949 12.5611 13.7156 12.3878 13.6999C10.4645 13.491 8.61714 12.8338 6.99401 11.7812C5.48391 10.8216 4.2036 9.5413 3.24401 8.03119C2.18775 6.40069 1.53042 4.54431 1.32526 2.61244C1.30964 2.43961 1.33019 2.26541 1.38558 2.10095C1.44097 1.93649 1.53 1.78537 1.64699 1.6572C1.76399 1.52903 1.90639 1.42663 2.06513 1.35651C2.22387 1.2864 2.39548 1.2501 2.56901 1.24994H4.44401C4.74733 1.24695 5.04138 1.35436 5.27136 1.55215C5.50135 1.74993 5.65156 2.02459 5.69401 2.32494C5.77315 2.92498 5.91992 3.51414 6.13151 4.08119C6.2156 4.30489 6.2338 4.54801 6.18396 4.78174C6.13411 5.01547 6.0183 5.23001 5.85026 5.39994L5.05651 6.19369C5.94624 7.7584 7.2418 9.05397 8.80651 9.94369L9.60026 9.14994C9.77019 8.9819 9.98473 8.86609 10.2185 8.81625C10.4522 8.7664 10.6953 8.7846 10.919 8.86869C11.4861 9.08028 12.0752 9.22705 12.6753 9.30619C12.9789 9.34902 13.2561 9.50194 13.4543 9.73587C13.6526 9.9698 13.7579 10.2684 13.7503 10.5749Z" stroke="#006FEB" stroke-width="1.25" stroke-linecap="round" stroke-linejoin="round"/>
</g>
<defs>
<clipPath id="clip0_0_24">
<rect width="15" height="15" fill="white"/>
</clipPath>
</defs>
</svg>
