<svg preserveAspectRatio="none" width="100%" height="100%" overflow="visible" style="display: block;" viewBox="0 0 40 40" fill="none" xmlns="http://www.w3.org/2000/svg">
<g id="Frame 1171280045">
<path id="&#244;&#128;&#141;&#160;" d="M7.97602 22.9141C7.43672 22.9141 6.94645 22.7854 6.5052 22.528C6.06395 22.2583 5.7085 21.9029 5.43885 21.4616C5.18146 21.0204 5.05276 20.5301 5.05276 19.9908C5.05276 19.4515 5.18146 18.9674 5.43885 18.5384C5.7085 18.0971 6.06395 17.7478 6.5052 17.4904C6.94645 17.2208 7.43672 17.0859 7.97602 17.0859C8.51532 17.0859 9.0056 17.2208 9.44685 17.4904C9.88809 17.7478 10.2374 18.0971 10.4948 18.5384C10.7645 18.9674 10.8993 19.4515 10.8993 19.9908C10.8993 20.5301 10.7645 21.0204 10.4948 21.4616C10.2374 21.9029 9.88809 22.2583 9.44685 22.528C9.0056 22.7854 8.51532 22.9141 7.97602 22.9141ZM20 22.9141C19.4607 22.9141 18.9704 22.7854 18.5292 22.528C18.1002 22.2583 17.7509 21.9029 17.4812 21.4616C17.2116 21.0204 17.0767 20.5301 17.0767 19.9908C17.0767 19.4515 17.2116 18.9674 17.4812 18.5384C17.7509 18.0971 18.1002 17.7478 18.5292 17.4904C18.9704 17.2208 19.4607 17.0859 20 17.0859C20.5393 17.0859 21.0296 17.2208 21.4708 17.4904C21.9121 17.7478 22.2614 18.0971 22.5188 18.5384C22.7884 18.9674 22.9233 19.4515 22.9233 19.9908C22.9233 20.5301 22.7884 21.0204 22.5188 21.4616C22.2614 21.9029 21.9121 22.2583 21.4708 22.528C21.0296 22.7854 20.5393 22.9141 20 22.9141ZM32.0424 22.9141C31.5031 22.9141 31.0128 22.7854 30.5715 22.528C30.1303 22.2583 29.7748 21.9029 29.5052 21.4616C29.2478 21.0204 29.1191 20.5301 29.1191 19.9908C29.1191 19.4515 29.2478 18.9674 29.5052 18.5384C29.7748 18.0971 30.1303 17.7478 30.5715 17.4904C31.0128 17.2208 31.5031 17.0859 32.0424 17.0859C32.5694 17.0859 33.0536 17.2208 33.4948 17.4904C33.9483 17.7478 34.3038 18.0971 34.5611 18.5384C34.8185 18.9674 34.9472 19.4515 34.9472 19.9908C34.9472 20.5301 34.8185 21.0204 34.5611 21.4616C34.3038 21.9029 33.9483 22.2583 33.4948 22.528C33.0536 22.7854 32.5694 22.9141 32.0424 22.9141Z" fill="white"/>
</g>
</svg>
