<svg preserveAspectRatio="none" width="100%" height="100%" overflow="visible" style="display: block;" viewBox="0 0 25 25" fill="none" xmlns="http://www.w3.org/2000/svg">
<g id="Frame 1171280026">
<path id="&#244;&#128;&#180;&#191;" d="M12.5146 3.17383C12.1891 3.17383 11.9124 3.0599 11.6846 2.83203C11.4632 2.60417 11.3525 2.32747 11.3525 2.00195C11.3525 1.68945 11.4665 1.41927 11.6943 1.19141C11.9222 0.957031 12.1956 0.839844 12.5146 0.839844C12.8402 0.839844 13.1136 0.953776 13.335 1.18164C13.5628 1.40951 13.6768 1.68294 13.6768 2.00195C13.6768 2.33398 13.5661 2.61393 13.3447 2.8418C13.1234 3.06315 12.8467 3.17383 12.5146 3.17383ZM7.99316 5.77148C7.67415 5.77148 7.40072 5.66081 7.17285 5.43945C6.94499 5.21159 6.83105 4.9349 6.83105 4.60938C6.83105 4.29036 6.94499 4.01693 7.17285 3.78906C7.40072 3.5612 7.67415 3.44727 7.99316 3.44727C8.31868 3.44727 8.59538 3.5612 8.82324 3.78906C9.05111 4.01042 9.16504 4.28385 9.16504 4.60938C9.16504 4.94141 9.05111 5.2181 8.82324 5.43945C8.60189 5.66081 8.3252 5.77148 7.99316 5.77148ZM17.0361 5.77148C16.7106 5.77148 16.4339 5.66081 16.2061 5.43945C15.9782 5.21159 15.8643 4.9349 15.8643 4.60938C15.8643 4.29036 15.9782 4.01693 16.2061 3.78906C16.4404 3.5612 16.7171 3.44727 17.0361 3.44727C17.3551 3.44727 17.6286 3.5612 17.8564 3.78906C18.0843 4.01042 18.1982 4.28385 18.1982 4.60938C18.1982 4.94141 18.0843 5.2181 17.8564 5.43945C17.6351 5.66081 17.3617 5.77148 17.0361 5.77148ZM3.48145 8.41797C3.15592 8.41797 2.87923 8.30404 2.65137 8.07617C2.43001 7.84831 2.31934 7.57487 2.31934 7.25586C2.31934 6.93685 2.43327 6.66341 2.66113 6.43555C2.89551 6.20117 3.16895 6.08398 3.48145 6.08398C3.80046 6.08398 4.07389 6.19792 4.30176 6.42578C4.52962 6.65365 4.64355 6.93034 4.64355 7.25586C4.64355 7.58138 4.52962 7.85807 4.30176 8.08594C4.0804 8.30729 3.80697 8.41797 3.48145 8.41797ZM12.5146 8.7793C12.0915 8.7793 11.7301 8.63281 11.4307 8.33984C11.1312 8.04036 10.9814 7.67904 10.9814 7.25586C10.9814 6.83268 11.1312 6.47135 11.4307 6.17188C11.7367 5.86589 12.098 5.71289 12.5146 5.71289C12.9378 5.71289 13.2992 5.86589 13.5986 6.17188C13.8981 6.47135 14.0479 6.83268 14.0479 7.25586C14.0479 7.68555 13.8981 8.04688 13.5986 8.33984C13.3057 8.63281 12.9443 8.7793 12.5146 8.7793ZM21.5186 8.41797C21.193 8.41797 20.9163 8.30729 20.6885 8.08594C20.4671 7.85807 20.3564 7.58138 20.3564 7.25586C20.3564 6.93685 20.4704 6.66341 20.6982 6.43555C20.9261 6.20117 21.1995 6.08398 21.5186 6.08398C21.8376 6.08398 22.111 6.19792 22.3389 6.42578C22.5667 6.65365 22.6807 6.93034 22.6807 7.25586C22.6807 7.58138 22.5667 7.85807 22.3389 8.08594C22.1175 8.30729 21.8441 8.41797 21.5186 8.41797ZM7.99316 11.4062C7.56999 11.4062 7.20866 11.2565 6.90918 10.957C6.6097 10.6576 6.45996 10.2962 6.45996 9.87305C6.45996 9.45638 6.61296 9.09505 6.91895 8.78906C7.22493 8.48307 7.58301 8.33008 7.99316 8.33008C8.41634 8.33008 8.77767 8.48307 9.07715 8.78906C9.37663 9.08854 9.52637 9.44987 9.52637 9.87305C9.52637 10.3092 9.37663 10.6738 9.07715 10.9668C8.78418 11.2598 8.42285 11.4062 7.99316 11.4062ZM17.0361 11.4062C16.6064 11.4062 16.2419 11.2565 15.9424 10.957C15.6429 10.6576 15.4932 10.2962 15.4932 9.87305C15.4932 9.45638 15.6462 9.09505 15.9521 8.78906C16.2581 8.48307 16.6195 8.33008 17.0361 8.33008C17.4528 8.33008 17.8109 8.48307 18.1104 8.78906C18.4163 9.08854 18.5693 9.44987 18.5693 9.87305C18.5693 10.3027 18.4196 10.6673 18.1201 10.9668C17.8206 11.2598 17.4593 11.4062 17.0361 11.4062ZM3.48145 13.6621C3.15592 13.6621 2.87923 13.5514 2.65137 13.3301C2.43001 13.1022 2.31934 12.8255 2.31934 12.5C2.31934 12.181 2.43327 11.9076 2.66113 11.6797C2.89551 11.4518 3.16895 11.3379 3.48145 11.3379C3.80046 11.3379 4.07389 11.4518 4.30176 11.6797C4.52962 11.901 4.64355 12.1745 4.64355 12.5C4.64355 12.832 4.52962 13.1087 4.30176 13.3301C4.0804 13.5514 3.80697 13.6621 3.48145 13.6621ZM12.5146 14.2871C12.0199 14.2871 11.5967 14.1146 11.2451 13.7695C10.9001 13.418 10.7275 12.9948 10.7275 12.5C10.7275 12.1745 10.8089 11.8783 10.9717 11.6113C11.1344 11.3379 11.3493 11.1198 11.6162 10.957C11.8896 10.7943 12.1891 10.7129 12.5146 10.7129C13.0029 10.7129 13.4229 10.8887 13.7744 11.2402C14.126 11.5853 14.3018 12.0052 14.3018 12.5C14.3018 13.0013 14.1292 13.4245 13.7842 13.7695C13.4391 14.1146 13.016 14.2871 12.5146 14.2871ZM21.5186 13.6621C21.193 13.6621 20.9163 13.5514 20.6885 13.3301C20.4671 13.1022 20.3564 12.8255 20.3564 12.5C20.3564 12.181 20.4704 11.9076 20.6982 11.6797C20.9261 11.4518 21.1995 11.3379 21.5186 11.3379C21.8376 11.3379 22.111 11.4518 22.3389 11.6797C22.5667 11.901 22.6807 12.1745 22.6807 12.5C22.6807 12.832 22.5667 13.1087 22.3389 13.3301C22.1175 13.5514 21.8441 13.6621 21.5186 13.6621ZM7.99316 16.6699C7.5765 16.6699 7.21517 16.5202 6.90918 16.2207C6.6097 15.9147 6.45996 15.5501 6.45996 15.127C6.45996 14.7103 6.6097 14.3522 6.90918 14.0527C7.21517 13.7467 7.5765 13.5938 7.99316 13.5938C8.41634 13.5938 8.77767 13.7435 9.07715 14.043C9.37663 14.3424 9.52637 14.7038 9.52637 15.127C9.52637 15.5566 9.37663 15.9212 9.07715 16.2207C8.78418 16.5202 8.42285 16.6699 7.99316 16.6699ZM17.0361 16.6699C16.6064 16.6699 16.2419 16.5202 15.9424 16.2207C15.6429 15.9212 15.4932 15.5566 15.4932 15.127C15.4932 14.7103 15.6429 14.3522 15.9424 14.0527C16.2484 13.7467 16.613 13.5938 17.0361 13.5938C17.4528 13.5938 17.8109 13.7435 18.1104 14.043C18.4163 14.3424 18.5693 14.7038 18.5693 15.127C18.5693 15.5566 18.4196 15.9212 18.1201 16.2207C17.8206 16.5202 17.4593 16.6699 17.0361 16.6699ZM3.48145 18.9062C3.15592 18.9062 2.87923 18.7923 2.65137 18.5645C2.43001 18.3366 2.31934 18.0632 2.31934 17.7441C2.31934 17.4316 2.43327 17.1615 2.66113 16.9336C2.889 16.6992 3.16243 16.582 3.48145 16.582C3.80046 16.582 4.07389 16.696 4.30176 16.9238C4.52962 17.1452 4.64355 17.4186 4.64355 17.7441C4.64355 18.0762 4.53288 18.3529 4.31152 18.5742C4.09017 18.7956 3.81348 18.9062 3.48145 18.9062ZM12.5146 19.2773C12.0915 19.2773 11.7301 19.1276 11.4307 18.8281C11.1312 18.5286 10.9814 18.1673 10.9814 17.7441C10.9814 17.3275 11.1312 16.9694 11.4307 16.6699C11.7367 16.3639 12.098 16.2109 12.5146 16.2109C12.9378 16.2109 13.2992 16.3607 13.5986 16.6602C13.8981 16.9596 14.0479 17.321 14.0479 17.7441C14.0479 18.1738 13.8981 18.5384 13.5986 18.8379C13.3057 19.1309 12.9443 19.2773 12.5146 19.2773ZM21.5186 18.9062C21.193 18.9062 20.9163 18.7956 20.6885 18.5742C20.4671 18.3464 20.3564 18.0697 20.3564 17.7441C20.3564 17.4251 20.4704 17.1517 20.6982 16.9238C20.9261 16.696 21.1995 16.582 21.5186 16.582C21.8376 16.582 22.111 16.696 22.3389 16.9238C22.5667 17.1517 22.6807 17.4251 22.6807 17.7441C22.6807 18.0697 22.5667 18.3464 22.3389 18.5742C22.1175 18.7956 21.8441 18.9062 21.5186 18.9062ZM7.99316 21.5527C7.67415 21.5527 7.40072 21.4388 7.17285 21.2109C6.94499 20.9831 6.83105 20.7096 6.83105 20.3906C6.83105 20.0716 6.94499 19.7949 7.17285 19.5605C7.40072 19.3327 7.67415 19.2188 7.99316 19.2188C8.31868 19.2188 8.59538 19.3327 8.82324 19.5605C9.05111 19.7884 9.16504 20.0651 9.16504 20.3906C9.16504 20.7161 9.05111 20.9896 8.82324 21.2109C8.60189 21.4388 8.3252 21.5527 7.99316 21.5527ZM17.0361 21.5527C16.7106 21.5527 16.4339 21.4388 16.2061 21.2109C15.9782 20.9831 15.8643 20.7096 15.8643 20.3906C15.8643 20.0716 15.9782 19.7949 16.2061 19.5605C16.4404 19.3327 16.7171 19.2188 17.0361 19.2188C17.3551 19.2188 17.6286 19.3327 17.8564 19.5605C18.0843 19.7884 18.1982 20.0651 18.1982 20.3906C18.1982 20.7161 18.0843 20.9896 17.8564 21.2109C17.6351 21.4388 17.3617 21.5527 17.0361 21.5527ZM12.5146 24.1602C12.1891 24.1602 11.9124 24.0462 11.6846 23.8184C11.4632 23.5905 11.3525 23.3171 11.3525 22.998C11.3525 22.679 11.4665 22.4023 11.6943 22.168C11.9222 21.9401 12.1956 21.8262 12.5146 21.8262C12.8402 21.8262 13.1136 21.9401 13.335 22.168C13.5628 22.3958 13.6768 22.6725 13.6768 22.998C13.6768 23.3236 13.5661 23.597 13.3447 23.8184C13.1234 24.0462 12.8467 24.1602 12.5146 24.1602Z" fill="#086EDF"/>
</g>
</svg>
