<svg preserveAspectRatio="none" width="100%" height="100%" overflow="visible" style="display: block;" viewBox="0 0 40 40" fill="none" xmlns="http://www.w3.org/2000/svg">
<g id="Frame 1171280007">
<path id="&#244;&#128;&#139;&#153;" d="M9.60413 25.4629C9.60413 24.8656 9.80079 24.323 10.1941 23.8349C10.5947 23.3396 11.0427 22.8735 11.538 22.4364C11.8002 22.1961 12.0005 21.8902 12.1389 21.5187C12.2846 21.1472 12.3938 20.7175 12.4667 20.2294C12.5468 19.7341 12.6233 19.1951 12.6961 18.6124C12.7617 17.3815 12.9511 16.2816 13.2643 15.3128C13.5775 14.3368 14.0254 13.5137 14.6081 12.8436C15.1908 12.1735 15.9192 11.6782 16.7933 11.3577C17.0191 10.6585 17.4124 10.083 17.9733 9.63144C18.5414 9.17985 19.2188 8.95405 20.0055 8.95405C20.7848 8.95405 21.4549 9.17985 22.0158 9.63144C22.5839 10.083 22.9809 10.6585 23.2067 11.3577C24.0881 11.6782 24.8164 12.1735 25.3919 12.8436C25.9673 13.5137 26.4116 14.3368 26.7248 15.3128C27.038 16.2816 27.2347 17.3815 27.3148 18.6124C27.3804 19.1951 27.4496 19.7341 27.5224 20.2294C27.6025 20.7175 27.7118 21.1472 27.8502 21.5187C27.9958 21.8902 28.1998 22.1961 28.462 22.4364C28.9573 22.8735 29.4016 23.3396 29.795 23.8349C30.1956 24.323 30.3959 24.8656 30.3959 25.4629C30.3959 25.98 30.2211 26.3989 29.8714 26.7193C29.5218 27.0326 29.0484 27.1892 28.4511 27.1892H24.3539C24.3248 27.852 24.1245 28.4748 23.753 29.0575C23.3888 29.6475 22.8862 30.1245 22.2452 30.4887C21.6043 30.8602 20.8577 31.046 20.0055 31.046C19.146 31.046 18.3957 30.8602 17.7548 30.4887C17.1138 30.1245 16.6112 29.6475 16.247 29.0575C15.8828 28.4675 15.6861 27.8447 15.657 27.1892H11.5489C10.9516 27.1892 10.4782 27.0326 10.1286 26.7193C9.77894 26.3989 9.60413 25.98 9.60413 25.4629ZM12.6961 24.8401H27.2492V24.7309C27.1254 24.6362 26.987 24.5233 26.8341 24.3922C26.6884 24.2538 26.5318 24.1044 26.3643 23.9442C26.204 23.7767 26.0438 23.5982 25.8835 23.4088C25.7233 23.2122 25.5812 22.9609 25.4574 22.655C25.3336 22.349 25.228 22.0067 25.1406 21.6279C25.0532 21.2419 24.9767 20.8304 24.9111 20.3933C24.8529 19.949 24.8092 19.4901 24.78 19.0167C24.7218 17.7711 24.5579 16.7696 24.2884 16.0121C24.0261 15.2546 23.6874 14.6828 23.2723 14.2967C22.8571 13.9107 22.3909 13.6485 21.8738 13.5101C21.7572 13.481 21.6625 13.4336 21.5897 13.3681C21.5241 13.2952 21.4804 13.1823 21.4586 13.0294C21.4222 12.5195 21.2765 12.1152 21.0216 11.8166C20.7666 11.518 20.4279 11.3686 20.0055 11.3686C19.5757 11.3686 19.2334 11.518 18.9784 11.8166C18.7235 12.1152 18.5778 12.5195 18.5414 13.0294C18.5268 13.1823 18.4831 13.2952 18.4103 13.3681C18.3447 13.4336 18.2464 13.481 18.1153 13.5101C17.6054 13.6485 17.1429 13.9107 16.7277 14.2967C16.3126 14.6828 15.9702 15.2546 15.7007 16.0121C15.4312 16.7696 15.271 17.7711 15.22 19.0167C15.1836 19.4901 15.1362 19.949 15.0779 20.3933C15.027 20.8304 14.9578 21.2419 14.8704 21.6279C14.7829 22.0067 14.6773 22.349 14.5535 22.655C14.4297 22.9609 14.2804 23.2122 14.1055 23.4088C13.9599 23.5982 13.7996 23.7767 13.6248 23.9442C13.45 24.1044 13.2825 24.2538 13.1222 24.3922C12.962 24.5233 12.8199 24.6362 12.6961 24.7309V24.8401ZM18.0716 27.1892C18.108 27.7719 18.3047 28.238 18.6616 28.5877C19.0185 28.9373 19.4665 29.1121 20.0055 29.1121C20.5445 29.1121 20.9924 28.9373 21.3493 28.5877C21.7062 28.238 21.9029 27.7719 21.9393 27.1892H18.0716Z" fill="#046FE4"/>
</g>
</svg>
