<svg preserveAspectRatio="none" width="100%" height="100%" overflow="visible" style="display: block;" viewBox="0 0 20 20" fill="none" xmlns="http://www.w3.org/2000/svg">
<g id="spending" clip-path="url(#clip0_0_78)">
<path id="Vector" d="M17.5008 10.0002C17.9608 10.0002 18.3383 9.62601 18.2925 9.16851C18.1004 7.25532 17.2526 5.46743 15.8928 4.10795C14.533 2.74846 12.7449 1.90104 10.8317 1.70934C10.3733 1.66351 10 2.04101 10 2.50101V9.16768C10 9.38869 10.0878 9.60065 10.2441 9.75693C10.4004 9.91321 10.6123 10.001 10.8333 10.001L17.5008 10.0002Z" stroke="var(--stroke-0, #657381)" stroke-width="1.66667" stroke-linecap="round" stroke-linejoin="round"/>
<path id="Vector_2" d="M17.6727 13.2417C17.1426 14.4955 16.3134 15.6002 15.2576 16.4595C14.2019 17.3187 12.9517 17.9063 11.6164 18.1707C10.2812 18.4352 8.90142 18.3685 7.59785 17.9766C6.29429 17.5846 5.10659 16.8793 4.13858 15.9223C3.17058 14.9653 2.45174 13.7857 2.04493 12.4867C1.63811 11.1877 1.5557 9.8088 1.8049 8.47059C2.05409 7.13238 2.62731 5.87559 3.47444 4.81009C4.32156 3.74459 5.4168 2.90283 6.6644 2.3584" stroke="var(--stroke-0, #657381)" stroke-width="1.66667" stroke-linecap="round" stroke-linejoin="round"/>
</g>
<defs>
<clipPath id="clip0_0_78">
<rect width="20" height="20" fill="white"/>
</clipPath>
</defs>
</svg>
