<svg preserveAspectRatio="none" width="100%" height="100%" overflow="visible" style="display: block;" viewBox="0 0 43 68" fill="none" xmlns="http://www.w3.org/2000/svg">
<g id="CardBlue">
<path d="M0 5C0 2.23858 2.23858 0 5 0H38C40.7614 0 43 2.23858 43 5V63C43 65.7614 40.7614 68 38 68H5C2.23858 68 0 65.7614 0 63V5Z" fill="#00BCED"/>
<path d="M20.486 28.001C20.0884 28.001 20.0062 28.0703 19.8771 28.2141C19.8241 28.211 19.771 28.2095 19.718 28.2098C19.4121 28.2098 19.0192 28.2547 18.6842 28.4789C18.3606 28.6925 18.2067 29.0705 18.3792 29.3473C18.3792 29.3473 18.4949 29.1776 18.8753 29.1776C18.9289 29.1776 18.9881 29.1833 19.0512 29.1886C19.577 29.2507 19.966 29.5274 19.9187 30.2582C19.8766 30.9884 19.6028 31.8028 18.4825 31.8124C18.4825 31.8124 18.3381 31.8124 18.1842 31.798C17.6628 31.7412 17.4989 31.4138 17.4989 31.4138C17.4989 31.4138 17.9496 31.2914 17.9534 30.7194C17.9496 30.3303 17.6107 29.9743 17.1218 29.8304C16.9529 29.7828 16.7782 29.7593 16.6027 29.7607C16.0263 29.7607 15.3792 30.002 14.9428 30.5717C13.9535 31.8778 13.8732 33.7819 14.1145 35.5526C14.3573 37.3271 15.4829 38.9707 15.5159 39.0156C15.5398 39.0471 15.5613 39.0643 15.5857 39.0643C15.6001 39.0634 15.6138 39.0575 15.6244 39.0476C16.1104 38.5759 16.574 37.9312 16.7724 37.5001C16.9846 37.6693 16.8737 38.0291 16.7571 38.4134C16.6462 38.8062 16.3767 39.3276 16.2792 39.4959C16.185 39.6603 16.0588 39.8515 16.2285 39.9513C16.2484 39.9627 16.2711 39.9683 16.294 39.9676C16.5119 39.9676 17.0247 39.5877 17.5968 38.8249C18.2373 37.9666 18.5623 37.2047 18.5623 37.2047C18.6091 37.2153 18.6875 37.2946 18.6746 37.5106C18.666 37.73 18.4404 38.5463 18.0012 39.3062C17.5572 40.0656 17.1471 40.5406 17.0644 40.6486C17.0133 40.7113 17.0568 40.7504 17.0897 40.7758C17.1222 40.7977 17.9075 41.5309 19.0484 42.1503C20.4 42.8705 20.9993 43 20.9993 43C20.9993 43 21.5972 42.8738 22.9489 42.1541C24.0892 41.5337 24.8778 40.7973 24.907 40.7724C24.94 40.7499 24.982 40.7146 24.9323 40.6458C24.8544 40.5425 24.4429 40.0651 23.9999 39.3057C23.5621 38.5511 23.3279 37.7295 23.3245 37.513C23.3154 37.2946 23.389 37.2224 23.434 37.2043C23.434 37.2043 23.7623 37.9709 24.4028 38.8244C24.9777 39.5881 25.4858 39.9671 25.7047 39.9671C25.7284 39.9679 25.7518 39.9623 25.7726 39.9509C25.937 39.851 25.8146 39.6569 25.7181 39.4944C25.6282 39.3272 25.3548 38.8091 25.2387 38.4129C25.1273 38.0244 25.0117 37.665 25.2277 37.4996C25.4265 37.9307 25.8868 38.5788 26.3743 39.0438C26.3796 39.0498 26.386 39.0547 26.3933 39.0581C26.4005 39.0616 26.4083 39.0635 26.4163 39.0638C26.4379 39.0638 26.4608 39.0471 26.4809 39.018C26.5167 38.9702 27.6442 37.3295 27.8851 35.5521C28.1269 33.7776 28.0471 31.8778 27.0568 30.5712C26.6233 30.0001 25.9714 29.7573 25.3912 29.7573C25.21 29.7573 25.037 29.7807 24.8788 29.8261C24.386 29.9743 24.0486 30.3337 24.0515 30.7189C24.0515 31.291 24.5046 31.4133 24.5046 31.4133C24.5046 31.4133 24.3531 31.7326 23.813 31.7976C23.7159 31.8096 23.6183 31.8156 23.5205 31.8157C23.1142 31.8157 22.772 31.6867 22.4566 31.2413C22.1507 30.8126 22.1607 29.9299 22.143 29.6355C22.1292 29.3368 22.0651 28.6667 21.7511 28.3933C21.4381 28.1128 21.0567 28.0186 20.5811 28C20.5462 28.001 20.5152 28.001 20.486 28.001Z" fill="white"/>
</g>
</svg>
